<svg width="12" height="20" viewBox="0 0 12 20" fill="none" xmlns="http://www.w3.org/2000/svg">
<path d="M10.2 0.600098H1.8C0.807418 0.600098 0 1.40752 0 2.4001V18.0001C0 18.9927 0.807418 19.8001 1.8 19.8001H10.2C11.1926 19.8001 12 18.9927 12 18.0001V2.4001C12 1.40752 11.1926 0.600098 10.2 0.600098ZM1.8 1.8001H10.2C10.5311 1.8001 10.8 2.06904 10.8 2.4001V15.0001H1.2V2.4001C1.2 2.06904 1.46895 1.8001 1.8 1.8001ZM10.2 18.6001H1.8C1.46895 18.6001 1.2 18.3312 1.2 18.0001V16.2001H10.8V18.0001C10.8 18.3312 10.5311 18.6001 10.2 18.6001Z" fill="#DEC9A1"/>
<path d="M6.4242 16.9759C6.65853 17.2102 6.65853 17.5901 6.4242 17.8245C6.18987 18.0588 5.80998 18.0588 5.57565 17.8245C5.34132 17.5901 5.34132 17.2102 5.57565 16.9759C5.80998 16.7416 6.18987 16.7416 6.4242 16.9759Z" fill="#DEC9A1"/>
</svg>
